<?xml version="1.0" encoding="UTF-8"?>
<svg id="Layer_2" data-name="Layer 2" xmlns="http://www.w3.org/2000/svg" viewBox="0 0 23.66 17.2">
  <defs>
    <style>
      .cls-1 {
        fill: #fff;
        fill-rule: evenodd;
      }
    </style>
  </defs>
  <g id="head">
    <path class="cls-1" d="M7.96,7.39c-2.68,.61-1.88,5.14,.77,4.56,1.01-.22,1.8-1.36,1.61-2.67-.16-1.08-1.11-2.19-2.38-1.89h0Zm6.98,0c-2.68,.61-1.88,5.14,.77,4.56,1.01-.22,1.8-1.36,1.61-2.67-.15-1.08-1.11-2.19-2.38-1.89h0ZM3.88,3.14c1-1.35,3.47-2.12,4.98-2.64l-.26-.5c-1.6,.05-3.75,1-5.1,1.94-.62,.43-1.22,1.96-1.52,2.69C.85,7.38,.2,10.67,0,13.94c1.22,1.93,4.87,3.15,7.01,3.26,.2-.37,.6-.77,.83-1.16-.18-.16-2.26-.82-4.13-2.61-.12-.12-.33-.4-.43-.47,2.22,1.61,4.89,2.59,8.43,2.62,2.36,.02,4.82-.43,6.83-1.5,.85-.45,1.2-.76,1.74-1.06-.32,.67-2.52,2.13-3.17,2.44-.37,.16-.98,.37-1.3,.58,.17,.24,.71,1.02,.88,1.15,2.25-.03,4.73-1.18,5.97-2.25,1.24-1.06,1.07-.77,.81-3-.14-1.18-.34-2.35-.6-3.46-.35-1.47-1.64-5.83-2.7-6.53-.73-.47-1.12-.71-1.96-1.1C17.52,.53,15.9-.03,15.04,0l-.23,.52c1.23,.22,4.24,1.51,4.91,2.58-.49-.14-1.78-.95-3.54-1.46-3.89-1.12-7.83-.65-11.46,1.09-.28,.13-.56,.31-.84,.41h0Z"/>
  </g>
</svg>