<?xml version="1.0" encoding="UTF-8"?>
<svg id="Layer_2" data-name="Layer 2" xmlns="http://www.w3.org/2000/svg" viewBox="0 0 20.62 20.63">
  <defs>
    <style>
      .cls-1 {
        fill: #fff;
      }
    </style>
  </defs>
  <g id="head">
    <g>
      <path class="cls-1" d="M20.62,10.37c0,1.39,0,2.79,0,4.18-.02,3.46-2.59,6.05-6.04,6.07-2.84,.01-5.68,.01-8.53,0C2.62,20.6,.02,18.02,0,14.6c-.01-2.86-.01-5.72,0-8.58C.02,2.63,2.61,.03,6,.01c2.88-.01,5.76-.02,8.64,0,3.36,.02,5.95,2.61,5.98,5.96,.01,1.47,0,2.93,0,4.4ZM10.32,2.04c-1.45,0-2.9,0-4.35,0-2.33,.02-3.91,1.58-3.93,3.89-.02,2.92-.02,5.83,0,8.75,.01,2.32,1.59,3.89,3.92,3.9,2.9,.01,5.79,.01,8.69,0,2.35,0,3.92-1.59,3.93-3.95,.01-2.88,0-5.76,0-8.64,0-2.39-1.58-3.95-3.98-3.96-1.43,0-2.86,0-4.29,0Z"/>
      <path class="cls-1" d="M15.45,10.32c0,2.86-2.28,5.13-5.14,5.13-2.88,0-5.16-2.29-5.15-5.18,.01-2.85,2.3-5.11,5.16-5.1,2.86,0,5.12,2.29,5.12,5.15Zm-5.13-3.13c-1.68-.01-3.13,1.43-3.13,3.12,0,1.66,1.4,3.08,3.08,3.12,1.67,.04,3.13-1.39,3.16-3.09,.02-1.67-1.42-3.13-3.1-3.15Z"/>
      <path class="cls-1" d="M17,4.9c0,.72-.58,1.29-1.29,1.28-.69-.01-1.29-.63-1.27-1.32,.02-.7,.57-1.23,1.28-1.24,.73,0,1.28,.55,1.28,1.28Z"/>
    </g>
  </g>
</svg>