<?xml version="1.0" encoding="UTF-8"?>
<svg id="Layer_2" data-name="Layer 2" xmlns="http://www.w3.org/2000/svg" viewBox="0 0 23.86 21.45">
  <defs>
    <style>
      .cls-1 {
        fill: #8e8e8e;
      }
    </style>
  </defs>
  <g id="head">
    <g>
      <path class="cls-1" d="M17.75,15.27c-.21,.31-.49,.67-.88,1.05-.41,.4-.82,.68-1.16,.88h-2.78v-2.26h1.98c.18-.14,3.19-2.66,3.08-5.09-.03-.6-.19-1.21-.19-1.21-.27-1.02-.74-1.65-1.35-2.48-1.03-1.4-2.06-2.21-2.45-2.5-.42-.32-.8-.55-1.07-.71V.77C12.78,.31,12.35,0,11.86,0c-.5,0-.95,.36-1.07,.85v1.51c-1-.25-2-.5-3-.74,.86,1.57,1.93,3.88,2.37,6.35,.17,.97,.16,1.54,.08,2.06-.05,.31-.19,1.06-1.49,3.36-.37,.66-.69,1.19-.91,1.54h2.94v2.15h-3.27c-.17-.04-.61-.17-.99-.58-.36-.39-.46-.82-.49-.99v-.8H0c-.03,.44-.11,2.67,1.57,4.59,1.57,1.8,3.62,2.09,4.1,2.15h11.72c.58-.19,1.01-.45,1.32-.69,.64-.48,1.02-1.08,1.76-2.26,.54-.85,.49-.89,.83-1.32,.69-.89,1.34-1.35,1.54-1.49,.4-.27,.76-.44,1.02-.55v-1.62c-2.04,.58-4.07,1.16-6.11,1.73Z"/>
      <path class="cls-1" d="M5.73,12.52c.34-.36,.83-1.11,1.11-2.05,.29-.97,.2-1.76,.11-2.44-.21-1.64-.85-2.98-1.47-3.94C3.74,6.9,1.99,9.71,.25,12.52c1.84,0,3.67,.03,5.49,0Z"/>
    </g>
  </g>
</svg>