<?xml version="1.0" encoding="UTF-8"?>
<svg id="Layer_2" data-name="Layer 2" xmlns="http://www.w3.org/2000/svg" viewBox="0 0 21.9 18.1">
  <defs>
    <style>
      .cls-1 {
        fill: #fff;
      }
    </style>
  </defs>
  <g id="head">
    <path class="cls-1" d="M0,16.05c2.34,.15,4.47-.4,6.45-1.89-2.05-.26-3.45-1.22-4.2-3.19h1.79c-2.07-.84-3.26-2.27-3.4-4.55,.63,.18,1.21,.34,1.79,.51,.11,.03,.22,.05,.33,.08-.08-.06-.17-.12-.25-.18C.63,5.16,.26,3.18,1.27,.8,3.8,3.67,6.86,5.32,10.68,5.58c0-.61-.06-1.19,.01-1.75C10.95,1.74,12.86,.07,14.95,0c1.23-.04,2.29,.32,3.24,1.1,.19,.16,.56,.25,.79,.19,.59-.15,1.14-.4,1.71-.62,.21-.08,.41-.17,.7-.29-.36,1.02-1,1.71-1.73,2.33,.02,.04,.05,.08,.07,.12,.7-.19,1.41-.38,2.17-.59-.07,.12-.11,.24-.18,.32-.33,.39-.62,.85-1.03,1.12-.85,.56-.91,1.35-.97,2.24-.33,4.94-3.43,9.65-8.4,11.38-3.67,1.28-7.29,1.02-10.76-.8-.19-.1-.37-.21-.55-.32,0-.04,0-.09,0-.13Z"/>
  </g>
</svg>